<svg id="Capa_1" data-name="Capa 1" xmlns="http://www.w3.org/2000/svg" viewBox="0 0 34.13 34.2"><g id="telephonist"><path d="M33.32,30.27a8.72,8.72,0,0,0,3.9-.13s.13-1.3.2-3.25a5.93,5.93,0,0,1-1.9.29.41.41,0,0,1-.34-.17.45.45,0,0,1-.08-.37,31,31,0,0,0,.84-7.26c-.22-3.94-2.85-6.19-7.32-6.19s-7,2.19-7.21,6.16a31.31,31.31,0,0,0,.84,7.29.44.44,0,0,1-.07.37.42.42,0,0,1-.34.17A5.83,5.83,0,0,1,20,26.92c.07,1.93.17,3.22.17,3.22a8.72,8.72,0,0,0,3.9.13,5.71,5.71,0,0,0,4.61,2.93A5.71,5.71,0,0,0,33.32,30.27Zm-4.61,2c-1.87,0-3.63-1.59-4.78-4.19a7.08,7.08,0,0,0,3.31,1.24,1.42,1.42,0,0,0,1.44.81c.94,0,1.71-.5,1.71-1.12s-.77-1.14-1.71-1.14a1.52,1.52,0,0,0-1.31.61C24.8,28.17,23.68,27,23.2,26a23.07,23.07,0,0,1-.59-4.36c0-1.18,0-2.26.11-3.24,1.78.08,7.3.1,7.3-2.65a5.6,5.6,0,0,0,4.67,2.57c.09,1,.12,2.11.12,3.32a24.34,24.34,0,0,1-.61,4.47C33.17,29.88,31,32.31,28.71,32.31Z" transform="translate(-11.65 -9.65)"/><path d="M28.62,12.38c4.67,0,7.62,2.36,8.09,6.38l.52.35a23.4,23.4,0,0,0-1.32-6C34.6,9.85,30,10.5,30,10.5s-3.27-2.61-7.2,1.31c-1.46,1.46-2.2,3.24-2.55,6.55l-.06.69.43-.29C21.09,14.69,23.93,12.38,28.62,12.38Z" transform="translate(-11.65 -9.65)"/><path d="M21.11,35.13h.47a.43.43,0,0,1,.37.2.47.47,0,0,1,0,.43L20.91,38a53.26,53.26,0,0,0,4.92,5.76c.5,0,1,.07,1.51.09-1.72-2.74-3.51-9.66-4.24-12.7Z" transform="translate(-11.65 -9.65)"/><path d="M20,37.85,20.88,36H20.4A.45.45,0,0,1,20,35.8a.47.47,0,0,1,0-.43l2.36-4.71v0c-2.5.94-7.57,2.4-8.94,4.21A8.48,8.48,0,0,0,11.65,40a6.36,6.36,0,0,0,.06.87c2,1.37,8.5,2.4,12.76,2.82A56.73,56.73,0,0,1,20,38.3.45.45,0,0,1,20,37.85Z" transform="translate(-11.65 -9.65)"/><path d="M44,34.85c-1.4-1.86-6.54-3.35-9.13-4.28a.24.24,0,0,1,.08.09l2.35,4.71a.44.44,0,0,1-.39.64h-.48l.88,1.84a.45.45,0,0,1,0,.45,56.24,56.24,0,0,1-4.45,5.36c4.33-.41,10.92-1.44,12.91-2.83a6.36,6.36,0,0,0,.06-.87A8.42,8.42,0,0,0,44,34.85Z" transform="translate(-11.65 -9.65)"/><path d="M35.31,35.76a.44.44,0,0,1,0-.43.46.46,0,0,1,.38-.2h.46L34.36,31.5c-.84,3.19-2.68,9.72-4.39,12.35.5,0,1-.05,1.48-.08A53.5,53.5,0,0,0,36.38,38Z" transform="translate(-11.65 -9.65)"/><path d="M20,26a4.64,4.64,0,0,0,1.28.29,32.83,32.83,0,0,1-.73-6.44c-.14.1-.29.22-.44.35a5.36,5.36,0,0,0-1.32,1.6,3.54,3.54,0,0,0,0,3.23A2.48,2.48,0,0,0,20,26Z" transform="translate(-11.65 -9.65)"/><path d="M36.06,26.3A3.94,3.94,0,0,0,37.45,26,2.43,2.43,0,0,0,38.57,25a3.5,3.5,0,0,0,0-3.23,5.2,5.2,0,0,0-1.22-1.51,6.18,6.18,0,0,0-.54-.44A32,32,0,0,1,36.06,26.3Z" transform="translate(-11.65 -9.65)"/></g></svg>