<svg id="Layer_1" data-name="Layer 1" xmlns="http://www.w3.org/2000/svg" viewBox="0 0 38.85 54.85"><defs><style>.cls-1{fill:#52575b;fill-rule:evenodd;}</style></defs><path class="cls-1" d="M312.92,232.74l-2-.38-.56-3a1.07,1.07,0,0,0-.85-.85l-6.78-1.11a1,1,0,0,0-1,.53l-1.59,3.32a1,1,0,0,0-.09.37,5.64,5.64,0,0,0-.94,3.57,5.7,5.7,0,0,0,11.39-.35l2,.37a1,1,0,0,0,1.12-.77l.11-.59A1,1,0,0,0,312.92,232.74Z" transform="translate(-274.85 -227.4)"/><path class="cls-1" d="M301.86,259.66l3.25,2.66a2.94,2.94,0,1,0,3.73-4.55l-5.36-4.39,1.47-5.73a5.42,5.42,0,0,0-3.66-6.61l-.83-.23a4.78,4.78,0,0,0-1.71-.16,1.22,1.22,0,0,0-.48,0l-.06,0a4.9,4.9,0,0,0-.55.13l-10.24,2.53a3,3,0,0,0-2,2l-.59,1.37-4.35-.49a1.68,1.68,0,0,0-1.75,1.13l-2.83,12.12a1.11,1.11,0,0,0,.93,1.5l13.57,1.81-4.62,4.62-8.7,2.33a2.94,2.94,0,1,0,1.52,5.69l9.27-2.49a1.91,1.91,0,0,0,.36-.13,3,3,0,0,0,1.19-.71l6.22-6.23,5.47,5-1.72,7.78a2.94,2.94,0,0,0,5.75,1.27l2.07-9.38a3,3,0,0,0-.47-2.32,3,3,0,0,0-.53-.66l-5.29-4.83a5.52,5.52,0,0,0,.52-1.3Zm-7.1-7.86L293,259.37a1.12,1.12,0,0,1-1.19.76l-11.76-1.63a.76.76,0,0,1-.64-1l1.75-7.56a1.13,1.13,0,0,1,1.19-.77l1.31.18-2,4.56a2.95,2.95,0,0,0,5.41,2.34l2.62-6.06,4.4.62A.75.75,0,0,1,294.76,251.8Z" transform="translate(-274.85 -227.4)"/></svg>